<?xml version="1.0" standalone="no"?>
<!DOCTYPE svg PUBLIC "-//W3C//DTD SVG 20010904//EN"
 "http://www.w3.org/TR/2001/REC-SVG-20010904/DTD/svg10.dtd">
<svg version="1.0" xmlns="http://www.w3.org/2000/svg"
 width="215.000000pt" height="215.000000pt" viewBox="0 0 215.000000 215.000000"
 preserveAspectRatio="xMidYMid meet">
<metadata>
Created by potrace 1.11, written by Peter Selinger 2001-2013
</metadata>
<g transform="translate(0.000000,215.000000) scale(0.100000,-0.100000)"
fill="#000000" stroke="none">
<path d="M958 2145 c-2 -2 -25 -6 -51 -9 -71 -10 -203 -54 -275 -92 -246 -130
-422 -348 -493 -612 -26 -99 -33 -286 -15 -397 44 -259 202 -497 426 -641 68
-43 188 -130 200 -144 4 -5 125 -100 272 -213 l49 -37 207 163 c114 89 252
193 307 229 286 189 443 474 443 802 -1 263 -99 498 -285 681 -140 138 -332
234 -528 264 -53 8 -250 12 -257 6z m287 -380 c268 -91 434 -329 420 -600 -15
-307 -262 -549 -572 -561 -176 -7 -316 49 -444 176 -124 122 -180 265 -174
439 7 192 106 368 268 472 68 44 154 79 212 86 22 3 42 7 45 10 11 11 198 -6
245 -22z"/>
<path d="M863 1493 c-10 -3 -13 -71 -13 -288 0 -156 3 -290 6 -299 3 -9 12
-16 19 -16 7 0 91 44 187 97 318 178 333 187 333 208 0 19 -50 51 -235 153
-36 20 -87 48 -113 64 -26 15 -50 28 -52 28 -2 0 -26 14 -52 30 -47 30 -57 33
-80 23z"/>
</g>
</svg>
